<!DOCTYPE svg PUBLIC "-//W3C//DTD SVG 1.1//EN" "http://www.w3.org/Graphics/SVG/1.1/DTD/svg11.dtd">
<!-- Uploaded to: SVG Repo, www.svgrepo.com, Transformed by: SVG Repo Mixer Tools -->
<svg fill="#ffffff" height="64px" width="64px" version="1.1" id="Layer_1" xmlns="http://www.w3.org/2000/svg" xmlns:xlink="http://www.w3.org/1999/xlink" viewBox="0 0 502.4 502.4" xml:space="preserve" stroke="#ffffff">
<g id="SVGRepo_bgCarrier" stroke-width="0"/>
<g id="SVGRepo_tracerCarrier" stroke-linecap="round" stroke-linejoin="round"/>
<g id="SVGRepo_iconCarrier"> <g> <g> <path d="M481.066,459.2h-8.533V300.267c0-11.733-9.6-21.333-21.333-21.333h-68.267V120c0-11.733-9.6-21.333-21.333-21.333H336 v-76.8c0-11.733-9.6-21.333-21.333-21.333s-21.333,9.6-21.333,21.333v76.8H208v-76.8c0-11.733-9.6-21.333-21.333-21.333 s-21.333,9.6-21.333,21.333v76.8H140.8c-11.733,0-21.333,9.6-21.333,21.333v158.933H50.133c-11.733,0-21.333,9.6-21.333,21.333 V459.2h-7.467C9.6,459.2,0,468.8,0,480.533s9.6,21.333,21.333,21.333H480c11.733,0,21.333-9.6,22.4-21.333 C502.4,468.8,492.8,459.2,481.066,459.2z M161.066,141.333h179.2v137.6h-179.2V141.333z M430.933,459.2H71.466v-39.467 c11.733-11.733,27.733-19.2,44.8-19.2c13.867,0,26.667,5.333,41.6,10.667c4.267,2.133,9.6,3.2,14.933,5.333 c33.067,10.667,58.667,10.667,80-1.067c5.333-3.2,10.667-7.467,14.933-10.667s8.533-6.4,11.733-7.467 c6.4-3.2,17.067-1.067,29.867,5.333c2.133,1.067,5.333,3.2,8.533,4.267c11.733,6.4,25.6,13.867,41.6,16 c27.733,3.2,52.267-7.467,71.467-19.2V459.2z M430.933,321.6v35.2c-3.2,0-6.4,1.067-8.533,3.2 c-19.2,12.8-39.467,23.467-56.533,21.333c-9.6-2.133-19.2-6.4-28.8-11.733c-3.2-2.133-6.4-3.2-9.6-5.333 c-24.533-11.733-44.8-13.867-62.933-7.467c-9.6,3.2-16,9.6-22.4,13.867c-3.2,2.133-6.4,4.267-9.6,6.4 c-10.667,5.333-26.667,4.267-46.933-2.133c-4.267-2.133-9.6-3.2-13.867-5.333c-17.067-6.4-34.133-11.733-54.4-12.8 c-16-1.067-32,3.2-45.867,10.667v-45.867L430.933,321.6L430.933,321.6z"/> </g> </g> </g>
</svg>