<!DOCTYPE svg PUBLIC "-//W3C//DTD SVG 1.1//EN" "http://www.w3.org/Graphics/SVG/1.1/DTD/svg11.dtd">
<!-- Uploaded to: SVG Repo, www.svgrepo.com, Transformed by: SVG Repo Mixer Tools -->
<svg fill="#ffffff" height="64px" width="64px" version="1.1" id="Layer_1" xmlns="http://www.w3.org/2000/svg" xmlns:xlink="http://www.w3.org/1999/xlink" viewBox="0 0 511.999 511.999" xml:space="preserve" stroke="#ffffff">
<g id="SVGRepo_bgCarrier" stroke-width="0"/>
<g id="SVGRepo_tracerCarrier" stroke-linecap="round" stroke-linejoin="round"/>
<g id="SVGRepo_iconCarrier"> <g> <g> <path d="M452.267,249.334h-8.953c-6.187-64.592-53.719-119.312-118.85-132.888c-9.245-14.91-21.518-27.307-35.781-36.58 c8.605-8.465,13.954-20.232,13.954-33.228C302.637,20.921,281.716,0,255.999,0c-25.716,0-46.637,20.921-46.637,46.637 c0,5.254,0.886,10.3,2.494,15.016c-60.915,6.674-107.005,59.841-104.405,121.322c-21.037,16.312-34.786,40.23-38.467,66.359 h-9.252c-10.453,0-18.349,9.512-16.415,19.792l43.145,229.26c1.485,7.895,8.38,13.614,16.415,13.614c14.448,0,291.797,0,306.245,0 c8.034,0,14.929-5.719,16.415-13.614l43.145-229.26C470.614,258.853,462.727,249.334,452.267,249.334z M255.999,33.406 c7.296,0,13.232,5.936,13.232,13.231c0,7.296-5.936,13.232-13.232,13.232c-7.296,0-13.231-5.936-13.231-13.232 C242.769,39.342,248.704,33.406,255.999,33.406z M133.723,205.339c5.544-3.45,8.571-9.815,7.746-16.294 c-6.472-50.731,33.195-94.695,83.26-94.695c31.263,0,59.749,17.216,74.338,44.93c2.472,4.695,7.029,7.936,12.273,8.732 c51.647,7.841,90.757,48.798,98.054,98.783H103.468C107.752,229.809,118.459,214.83,133.723,205.339z M116.732,478.594 L79.873,282.74h41.971l22.766,195.854H116.732z M239.296,478.594h-61.057L155.473,282.74h83.823V478.594z M333.76,478.594h-61.058 V282.74h83.823L333.76,478.594z M395.269,478.594h-27.878l22.765-195.854h41.972L395.269,478.594z"/> </g> </g> </g>
</svg>